<svg xmlns="http://www.w3.org/2000/svg" viewBox="0 0 256 256" role="img" aria-labelledby="title">
  <title id="title">FullCourtHQ square icon</title>
  <defs>
    <linearGradient id="courtGradient" x1="18" x2="238" y1="18" y2="238" gradientUnits="userSpaceOnUse">
      <stop offset="0" stop-color="#3e1a7a"/>
      <stop offset="1" stop-color="#1d0b43"/>
    </linearGradient>
  </defs>
  <rect width="220" height="220" x="18" y="18" rx="22" fill="url(#courtGradient)"/>
  <rect width="196" height="196" x="30" y="30" rx="14" fill="none" stroke="#fff" stroke-width="8"/>
  <path d="M128 32v192M36 128h184M72 32v196M184 32v196" fill="none" stroke="#fff" stroke-width="5" opacity=".9"/>
  <path d="M88 80a48 48 0 0 1 80 0M88 176a48 48 0 0 0 80 0" fill="none" stroke="#fff" stroke-width="6" stroke-linecap="round"/>
  <path d="M34 82c27 8 44 25 44 46S61 166 34 174M222 82c-27 8-44 25-44 46s17 38 44 46" fill="none" stroke="#fff" stroke-width="6" stroke-linecap="round"/>
  <path d="M35 104h22v48H35M221 104h-22v48h22" fill="none" stroke="#df9f12" stroke-width="7"/>
  <text x="66" y="151" fill="#fff" font-family="Arial Black, Arial, sans-serif" font-size="78" font-weight="900">F</text>
  <text x="127" y="151" fill="#df9f12" font-family="Arial Black, Arial, sans-serif" font-size="78" font-weight="900">C</text>
</svg>
